<mxfile host="app.diagrams.net" agent="Mozilla/5.0 (Windows NT 10.0; Win64; x64) AppleWebKit/537.36 (KHTML, like Gecko) Chrome/134.0.0.0 Safari/537.36" version="26.1.3">
  <diagram name="PÃ¡gina-1" id="ndjh5ayQiBdi1_K1sO19">
    <mxGraphModel dx="1820" dy="1737" grid="1" gridSize="10" guides="1" tooltips="1" connect="1" arrows="1" fold="1" page="1" pageScale="1" pageWidth="827" pageHeight="1169" math="0" shadow="0">
      <root>
        <mxCell id="0" />
        <mxCell id="1" parent="0" />
        <mxCell id="wRPX20ZpGDFE18_bPmnT-3" style="edgeStyle=orthogonalEdgeStyle;rounded=0;orthogonalLoop=1;jettySize=auto;html=1;" edge="1" parent="1" source="wRPX20ZpGDFE18_bPmnT-1" target="wRPX20ZpGDFE18_bPmnT-2">
          <mxGeometry relative="1" as="geometry" />
        </mxCell>
        <mxCell id="wRPX20ZpGDFE18_bPmnT-10" style="edgeStyle=orthogonalEdgeStyle;rounded=0;orthogonalLoop=1;jettySize=auto;html=1;entryX=1;entryY=0.5;entryDx=0;entryDy=0;" edge="1" parent="1" source="wRPX20ZpGDFE18_bPmnT-1" target="wRPX20ZpGDFE18_bPmnT-2">
          <mxGeometry relative="1" as="geometry">
            <mxPoint x="490" y="200" as="targetPoint" />
            <Array as="points">
              <mxPoint x="480" y="60" />
              <mxPoint x="480" y="190" />
            </Array>
          </mxGeometry>
        </mxCell>
        <mxCell id="wRPX20ZpGDFE18_bPmnT-1" value="Home" style="ellipse;whiteSpace=wrap;html=1;aspect=fixed;" vertex="1" parent="1">
          <mxGeometry x="350" y="20" width="80" height="80" as="geometry" />
        </mxCell>
        <mxCell id="wRPX20ZpGDFE18_bPmnT-14" style="edgeStyle=orthogonalEdgeStyle;rounded=0;orthogonalLoop=1;jettySize=auto;html=1;" edge="1" parent="1" source="wRPX20ZpGDFE18_bPmnT-2" target="wRPX20ZpGDFE18_bPmnT-5">
          <mxGeometry relative="1" as="geometry">
            <Array as="points">
              <mxPoint x="340" y="240" />
              <mxPoint x="310" y="240" />
            </Array>
          </mxGeometry>
        </mxCell>
        <mxCell id="wRPX20ZpGDFE18_bPmnT-15" style="edgeStyle=orthogonalEdgeStyle;rounded=0;orthogonalLoop=1;jettySize=auto;html=1;" edge="1" parent="1" source="wRPX20ZpGDFE18_bPmnT-2" target="wRPX20ZpGDFE18_bPmnT-6">
          <mxGeometry relative="1" as="geometry">
            <Array as="points">
              <mxPoint x="370" y="240" />
              <mxPoint x="470" y="240" />
            </Array>
          </mxGeometry>
        </mxCell>
        <mxCell id="wRPX20ZpGDFE18_bPmnT-17" style="edgeStyle=orthogonalEdgeStyle;rounded=0;orthogonalLoop=1;jettySize=auto;html=1;" edge="1" parent="1" source="wRPX20ZpGDFE18_bPmnT-2" target="wRPX20ZpGDFE18_bPmnT-7">
          <mxGeometry relative="1" as="geometry">
            <Array as="points">
              <mxPoint x="430" y="230" />
              <mxPoint x="660" y="230" />
            </Array>
          </mxGeometry>
        </mxCell>
        <mxCell id="wRPX20ZpGDFE18_bPmnT-32" style="edgeStyle=orthogonalEdgeStyle;rounded=0;orthogonalLoop=1;jettySize=auto;html=1;" edge="1" parent="1" source="wRPX20ZpGDFE18_bPmnT-2" target="wRPX20ZpGDFE18_bPmnT-31">
          <mxGeometry relative="1" as="geometry" />
        </mxCell>
        <mxCell id="wRPX20ZpGDFE18_bPmnT-2" value="Login" style="rounded=0;whiteSpace=wrap;html=1;" vertex="1" parent="1">
          <mxGeometry x="330" y="160" width="120" height="60" as="geometry" />
        </mxCell>
        <mxCell id="wRPX20ZpGDFE18_bPmnT-24" style="edgeStyle=orthogonalEdgeStyle;rounded=0;orthogonalLoop=1;jettySize=auto;html=1;" edge="1" parent="1" source="wRPX20ZpGDFE18_bPmnT-4" target="wRPX20ZpGDFE18_bPmnT-22">
          <mxGeometry relative="1" as="geometry" />
        </mxCell>
        <mxCell id="wRPX20ZpGDFE18_bPmnT-4" value="Hire" style="rounded=0;whiteSpace=wrap;html=1;" vertex="1" parent="1">
          <mxGeometry x="250" y="390" width="120" height="60" as="geometry" />
        </mxCell>
        <mxCell id="wRPX20ZpGDFE18_bPmnT-21" style="edgeStyle=orthogonalEdgeStyle;rounded=0;orthogonalLoop=1;jettySize=auto;html=1;" edge="1" parent="1" source="wRPX20ZpGDFE18_bPmnT-5" target="wRPX20ZpGDFE18_bPmnT-4">
          <mxGeometry relative="1" as="geometry" />
        </mxCell>
        <mxCell id="wRPX20ZpGDFE18_bPmnT-5" value="Search" style="rounded=0;whiteSpace=wrap;html=1;" vertex="1" parent="1">
          <mxGeometry x="250" y="260" width="120" height="60" as="geometry" />
        </mxCell>
        <mxCell id="wRPX20ZpGDFE18_bPmnT-6" value="List" style="rounded=0;whiteSpace=wrap;html=1;" vertex="1" parent="1">
          <mxGeometry x="410" y="260" width="120" height="60" as="geometry" />
        </mxCell>
        <mxCell id="wRPX20ZpGDFE18_bPmnT-7" value="Profile" style="rounded=0;whiteSpace=wrap;html=1;" vertex="1" parent="1">
          <mxGeometry x="600" y="260" width="120" height="60" as="geometry" />
        </mxCell>
        <mxCell id="wRPX20ZpGDFE18_bPmnT-11" value="&lt;font style=&quot;font-size: 8px;&quot;&gt;Logout&lt;/font&gt;&lt;div&gt;&lt;br&gt;&lt;/div&gt;" style="text;html=1;align=center;verticalAlign=middle;whiteSpace=wrap;rounded=0;" vertex="1" parent="1">
          <mxGeometry x="450" y="40" width="60" height="30" as="geometry" />
        </mxCell>
        <mxCell id="wRPX20ZpGDFE18_bPmnT-12" style="edgeStyle=orthogonalEdgeStyle;rounded=0;orthogonalLoop=1;jettySize=auto;html=1;" edge="1" parent="1" source="wRPX20ZpGDFE18_bPmnT-7" target="wRPX20ZpGDFE18_bPmnT-7">
          <mxGeometry relative="1" as="geometry">
            <Array as="points">
              <mxPoint x="770" y="270" />
            </Array>
          </mxGeometry>
        </mxCell>
        <mxCell id="wRPX20ZpGDFE18_bPmnT-13" value="&lt;font style=&quot;font-size: 8px;&quot;&gt;Edit profile&lt;/font&gt;" style="text;html=1;align=center;verticalAlign=middle;whiteSpace=wrap;rounded=0;" vertex="1" parent="1">
          <mxGeometry x="730" y="240" width="60" height="30" as="geometry" />
        </mxCell>
        <mxCell id="wRPX20ZpGDFE18_bPmnT-18" value="&lt;font style=&quot;font-size: 8px;&quot;&gt;Profile button&lt;/font&gt;" style="text;html=1;align=center;verticalAlign=middle;whiteSpace=wrap;rounded=0;" vertex="1" parent="1">
          <mxGeometry x="560" y="210" width="60" height="30" as="geometry" />
        </mxCell>
        <mxCell id="wRPX20ZpGDFE18_bPmnT-19" value="&lt;font style=&quot;font-size: 8px;&quot;&gt;if admin&lt;/font&gt;" style="text;html=1;align=center;verticalAlign=middle;whiteSpace=wrap;rounded=0;" vertex="1" parent="1">
          <mxGeometry x="150" y="160" width="90" height="30" as="geometry" />
        </mxCell>
        <mxCell id="wRPX20ZpGDFE18_bPmnT-45" style="edgeStyle=orthogonalEdgeStyle;rounded=0;orthogonalLoop=1;jettySize=auto;html=1;" edge="1" parent="1" source="wRPX20ZpGDFE18_bPmnT-22" target="wRPX20ZpGDFE18_bPmnT-5">
          <mxGeometry relative="1" as="geometry">
            <Array as="points">
              <mxPoint x="190" y="540" />
              <mxPoint x="190" y="310" />
            </Array>
          </mxGeometry>
        </mxCell>
        <mxCell id="wRPX20ZpGDFE18_bPmnT-22" value="Checkout" style="rounded=0;whiteSpace=wrap;html=1;" vertex="1" parent="1">
          <mxGeometry x="250" y="510" width="120" height="60" as="geometry" />
        </mxCell>
        <mxCell id="wRPX20ZpGDFE18_bPmnT-30" value="&lt;font style=&quot;font-size: 8px;&quot;&gt;if freelancer&lt;/font&gt;" style="text;html=1;align=center;verticalAlign=middle;whiteSpace=wrap;rounded=0;" vertex="1" parent="1">
          <mxGeometry x="390" y="220" width="90" height="30" as="geometry" />
        </mxCell>
        <mxCell id="wRPX20ZpGDFE18_bPmnT-33" style="edgeStyle=orthogonalEdgeStyle;rounded=0;orthogonalLoop=1;jettySize=auto;html=1;" edge="1" parent="1" source="wRPX20ZpGDFE18_bPmnT-31" target="wRPX20ZpGDFE18_bPmnT-5">
          <mxGeometry relative="1" as="geometry" />
        </mxCell>
        <mxCell id="wRPX20ZpGDFE18_bPmnT-41" style="edgeStyle=orthogonalEdgeStyle;rounded=0;orthogonalLoop=1;jettySize=auto;html=1;" edge="1" parent="1" source="wRPX20ZpGDFE18_bPmnT-31" target="wRPX20ZpGDFE18_bPmnT-7">
          <mxGeometry relative="1" as="geometry">
            <mxPoint x="-10" y="-80" as="targetPoint" />
            <Array as="points">
              <mxPoint x="-30" y="290" />
              <mxPoint x="-30" y="-100" />
              <mxPoint x="690" y="-100" />
            </Array>
          </mxGeometry>
        </mxCell>
        <mxCell id="wRPX20ZpGDFE18_bPmnT-31" value="System settings" style="rounded=0;whiteSpace=wrap;html=1;" vertex="1" parent="1">
          <mxGeometry x="30" y="260" width="120" height="60" as="geometry" />
        </mxCell>
        <mxCell id="wRPX20ZpGDFE18_bPmnT-34" value="&lt;span style=&quot;color: rgb(51, 51, 51); font-family: Lora, sans-serif; text-align: left; background-color: rgb(255, 255, 255);&quot;&gt;&lt;font style=&quot;font-size: 8px;&quot;&gt;introduce new service categories&lt;/font&gt;&lt;/span&gt;" style="text;html=1;align=center;verticalAlign=middle;whiteSpace=wrap;rounded=0;" vertex="1" parent="1">
          <mxGeometry x="130" y="230" width="140" height="30" as="geometry" />
        </mxCell>
        <mxCell id="wRPX20ZpGDFE18_bPmnT-42" value="&lt;font style=&quot;font-size: 8px;&quot;&gt;promote user&lt;/font&gt;" style="text;html=1;align=center;verticalAlign=middle;whiteSpace=wrap;rounded=0;" vertex="1" parent="1">
          <mxGeometry x="290" y="-130" width="100" height="30" as="geometry" />
        </mxCell>
        <mxCell id="wRPX20ZpGDFE18_bPmnT-46" value="&lt;font style=&quot;font-size: 8px;&quot;&gt;hired&lt;/font&gt;" style="text;html=1;align=center;verticalAlign=middle;whiteSpace=wrap;rounded=0;" vertex="1" parent="1">
          <mxGeometry x="140" y="400" width="60" height="30" as="geometry" />
        </mxCell>
      </root>
    </mxGraphModel>
  </diagram>
</mxfile>
